<mxfile host="app.diagrams.net" modified="2020-09-06T20:00:29.362Z" agent="5.0 (X11)" etag="HKAzL5B_gqpT03U7dxqE" version="13.6.6" type="github">
  <diagram id="C5RBs43oDa-KdzZeNtuy" name="Page-1">
    <mxGraphModel dx="2842" dy="876" grid="1" gridSize="10" guides="1" tooltips="1" connect="1" arrows="1" fold="1" page="1" pageScale="1" pageWidth="1169" pageHeight="827" math="0" shadow="0">
      <root>
        <mxCell id="WIyWlLk6GJQsqaUBKTNV-0" />
        <mxCell id="WIyWlLk6GJQsqaUBKTNV-1" parent="WIyWlLk6GJQsqaUBKTNV-0" />
        <mxCell id="xaEp7-AzfHSMh8ZNUW6U-1" value="Start" style="ellipse;whiteSpace=wrap;html=1;" vertex="1" parent="WIyWlLk6GJQsqaUBKTNV-1">
          <mxGeometry x="-995" y="210" width="60" height="50" as="geometry" />
        </mxCell>
        <mxCell id="xaEp7-AzfHSMh8ZNUW6U-2" value="" style="triangle;whiteSpace=wrap;html=1;rotation=-90;horizontal=1;direction=east;" vertex="1" parent="WIyWlLk6GJQsqaUBKTNV-1">
          <mxGeometry x="-1010" y="290" width="90" height="140" as="geometry" />
        </mxCell>
        <mxCell id="xaEp7-AzfHSMh8ZNUW6U-3" value="waiting in food line" style="text;html=1;strokeColor=none;fillColor=none;align=center;verticalAlign=middle;whiteSpace=wrap;rounded=0;" vertex="1" parent="WIyWlLk6GJQsqaUBKTNV-1">
          <mxGeometry x="-985" y="360" width="40" height="20" as="geometry" />
        </mxCell>
        <mxCell id="xaEp7-AzfHSMh8ZNUW6U-16" style="edgeStyle=orthogonalEdgeStyle;rounded=0;orthogonalLoop=1;jettySize=auto;html=1;exitX=1;exitY=0.5;exitDx=0;exitDy=0;" edge="1" parent="WIyWlLk6GJQsqaUBKTNV-1" source="xaEp7-AzfHSMh8ZNUW6U-4" target="xaEp7-AzfHSMh8ZNUW6U-5">
          <mxGeometry relative="1" as="geometry" />
        </mxCell>
        <mxCell id="xaEp7-AzfHSMh8ZNUW6U-4" value="Order &amp;amp; Pick up Food" style="whiteSpace=wrap;html=1;aspect=fixed;" vertex="1" parent="WIyWlLk6GJQsqaUBKTNV-1">
          <mxGeometry x="-825" y="320" width="80" height="80" as="geometry" />
        </mxCell>
        <mxCell id="xaEp7-AzfHSMh8ZNUW6U-5" value="" style="triangle;whiteSpace=wrap;html=1;rotation=-90;horizontal=1;direction=east;" vertex="1" parent="WIyWlLk6GJQsqaUBKTNV-1">
          <mxGeometry x="-675" y="300" width="80" height="120" as="geometry" />
        </mxCell>
        <mxCell id="xaEp7-AzfHSMh8ZNUW6U-6" value="waiting in cashier line" style="text;html=1;strokeColor=none;fillColor=none;align=center;verticalAlign=middle;whiteSpace=wrap;rounded=0;" vertex="1" parent="WIyWlLk6GJQsqaUBKTNV-1">
          <mxGeometry x="-655" y="360" width="40" height="20" as="geometry" />
        </mxCell>
        <mxCell id="xaEp7-AzfHSMh8ZNUW6U-7" value="Pay" style="whiteSpace=wrap;html=1;aspect=fixed;" vertex="1" parent="WIyWlLk6GJQsqaUBKTNV-1">
          <mxGeometry x="-525" y="320" width="80" height="80" as="geometry" />
        </mxCell>
        <mxCell id="xaEp7-AzfHSMh8ZNUW6U-8" value="eat on premise?" style="rhombus;whiteSpace=wrap;html=1;" vertex="1" parent="WIyWlLk6GJQsqaUBKTNV-1">
          <mxGeometry x="-365" y="320" width="80" height="80" as="geometry" />
        </mxCell>
        <mxCell id="xaEp7-AzfHSMh8ZNUW6U-10" value="End" style="ellipse;whiteSpace=wrap;html=1;" vertex="1" parent="WIyWlLk6GJQsqaUBKTNV-1">
          <mxGeometry x="-165" y="335" width="60" height="50" as="geometry" />
        </mxCell>
        <mxCell id="xaEp7-AzfHSMh8ZNUW6U-11" value="Eat" style="rounded=0;whiteSpace=wrap;html=1;" vertex="1" parent="WIyWlLk6GJQsqaUBKTNV-1">
          <mxGeometry x="-375" y="180" width="100" height="50" as="geometry" />
        </mxCell>
        <mxCell id="xaEp7-AzfHSMh8ZNUW6U-12" value="" style="endArrow=classic;html=1;exitX=0.5;exitY=1;exitDx=0;exitDy=0;" edge="1" parent="WIyWlLk6GJQsqaUBKTNV-1" source="xaEp7-AzfHSMh8ZNUW6U-1" target="xaEp7-AzfHSMh8ZNUW6U-2">
          <mxGeometry width="50" height="50" relative="1" as="geometry">
            <mxPoint x="-395" y="360" as="sourcePoint" />
            <mxPoint x="-345" y="310" as="targetPoint" />
          </mxGeometry>
        </mxCell>
        <mxCell id="xaEp7-AzfHSMh8ZNUW6U-15" value="" style="endArrow=classic;html=1;exitX=0.5;exitY=1;exitDx=0;exitDy=0;entryX=0;entryY=0.5;entryDx=0;entryDy=0;" edge="1" parent="WIyWlLk6GJQsqaUBKTNV-1" source="xaEp7-AzfHSMh8ZNUW6U-2" target="xaEp7-AzfHSMh8ZNUW6U-4">
          <mxGeometry width="50" height="50" relative="1" as="geometry">
            <mxPoint x="-395" y="360" as="sourcePoint" />
            <mxPoint x="-345" y="310" as="targetPoint" />
          </mxGeometry>
        </mxCell>
        <mxCell id="xaEp7-AzfHSMh8ZNUW6U-17" value="" style="endArrow=classic;html=1;exitX=0.5;exitY=1;exitDx=0;exitDy=0;entryX=0;entryY=0.5;entryDx=0;entryDy=0;" edge="1" parent="WIyWlLk6GJQsqaUBKTNV-1" source="xaEp7-AzfHSMh8ZNUW6U-5" target="xaEp7-AzfHSMh8ZNUW6U-7">
          <mxGeometry width="50" height="50" relative="1" as="geometry">
            <mxPoint x="-395" y="360" as="sourcePoint" />
            <mxPoint x="-345" y="310" as="targetPoint" />
          </mxGeometry>
        </mxCell>
        <mxCell id="xaEp7-AzfHSMh8ZNUW6U-18" value="" style="endArrow=classic;html=1;exitX=1;exitY=0.5;exitDx=0;exitDy=0;entryX=0;entryY=0.5;entryDx=0;entryDy=0;" edge="1" parent="WIyWlLk6GJQsqaUBKTNV-1" source="xaEp7-AzfHSMh8ZNUW6U-7" target="xaEp7-AzfHSMh8ZNUW6U-8">
          <mxGeometry width="50" height="50" relative="1" as="geometry">
            <mxPoint x="-395" y="360" as="sourcePoint" />
            <mxPoint x="-345" y="310" as="targetPoint" />
          </mxGeometry>
        </mxCell>
        <mxCell id="xaEp7-AzfHSMh8ZNUW6U-19" value="" style="endArrow=classic;html=1;exitX=0.5;exitY=0;exitDx=0;exitDy=0;entryX=0.5;entryY=1;entryDx=0;entryDy=0;" edge="1" parent="WIyWlLk6GJQsqaUBKTNV-1" source="xaEp7-AzfHSMh8ZNUW6U-8" target="xaEp7-AzfHSMh8ZNUW6U-11">
          <mxGeometry width="50" height="50" relative="1" as="geometry">
            <mxPoint x="-395" y="360" as="sourcePoint" />
            <mxPoint x="-345" y="310" as="targetPoint" />
          </mxGeometry>
        </mxCell>
        <mxCell id="xaEp7-AzfHSMh8ZNUW6U-20" value="" style="endArrow=classic;html=1;entryX=0;entryY=0.5;entryDx=0;entryDy=0;exitX=1;exitY=0.5;exitDx=0;exitDy=0;" edge="1" parent="WIyWlLk6GJQsqaUBKTNV-1" source="xaEp7-AzfHSMh8ZNUW6U-8" target="xaEp7-AzfHSMh8ZNUW6U-10">
          <mxGeometry width="50" height="50" relative="1" as="geometry">
            <mxPoint x="-285" y="360" as="sourcePoint" />
            <mxPoint x="-345" y="310" as="targetPoint" />
          </mxGeometry>
        </mxCell>
        <mxCell id="xaEp7-AzfHSMh8ZNUW6U-22" value="" style="endArrow=classic;html=1;exitX=1;exitY=0.5;exitDx=0;exitDy=0;entryX=0.5;entryY=0;entryDx=0;entryDy=0;" edge="1" parent="WIyWlLk6GJQsqaUBKTNV-1" source="xaEp7-AzfHSMh8ZNUW6U-11" target="xaEp7-AzfHSMh8ZNUW6U-10">
          <mxGeometry width="50" height="50" relative="1" as="geometry">
            <mxPoint x="-395" y="360" as="sourcePoint" />
            <mxPoint x="-345" y="310" as="targetPoint" />
            <Array as="points">
              <mxPoint x="-135" y="205" />
            </Array>
          </mxGeometry>
        </mxCell>
        <mxCell id="xaEp7-AzfHSMh8ZNUW6U-23" value="Kitchen Staff" style="rounded=1;whiteSpace=wrap;html=1;fillColor=none;dashed=1;verticalAlign=bottom;" vertex="1" parent="WIyWlLk6GJQsqaUBKTNV-1">
          <mxGeometry x="-865" y="100" width="155" height="460" as="geometry" />
        </mxCell>
        <mxCell id="xaEp7-AzfHSMh8ZNUW6U-24" value="Cashier Staff" style="rounded=1;whiteSpace=wrap;html=1;dashed=1;fillColor=none;verticalAlign=bottom;" vertex="1" parent="WIyWlLk6GJQsqaUBKTNV-1">
          <mxGeometry x="-550" y="100" width="120" height="460" as="geometry" />
        </mxCell>
        <mxCell id="xaEp7-AzfHSMh8ZNUW6U-25" value="80% yes" style="text;html=1;strokeColor=none;fillColor=none;align=center;verticalAlign=middle;whiteSpace=wrap;rounded=0;dashed=1;" vertex="1" parent="WIyWlLk6GJQsqaUBKTNV-1">
          <mxGeometry x="-315" y="270" width="40" height="20" as="geometry" />
        </mxCell>
        <mxCell id="xaEp7-AzfHSMh8ZNUW6U-26" value="20% no" style="text;html=1;strokeColor=none;fillColor=none;align=center;verticalAlign=middle;whiteSpace=wrap;rounded=0;dashed=1;" vertex="1" parent="WIyWlLk6GJQsqaUBKTNV-1">
          <mxGeometry x="-285" y="385" width="40" height="20" as="geometry" />
        </mxCell>
        <mxCell id="xaEp7-AzfHSMh8ZNUW6U-27" value="3 min / customer" style="text;html=1;strokeColor=none;fillColor=none;align=center;verticalAlign=middle;whiteSpace=wrap;rounded=0;dashed=1;" vertex="1" parent="WIyWlLk6GJQsqaUBKTNV-1">
          <mxGeometry x="-986" y="420" width="40" height="20" as="geometry" />
        </mxCell>
        <mxCell id="xaEp7-AzfHSMh8ZNUW6U-28" value="2 min / customer" style="text;html=1;strokeColor=none;fillColor=none;align=center;verticalAlign=middle;whiteSpace=wrap;rounded=0;dashed=1;" vertex="1" parent="WIyWlLk6GJQsqaUBKTNV-1">
          <mxGeometry x="-807.5" y="420" width="40" height="20" as="geometry" />
        </mxCell>
        <mxCell id="xaEp7-AzfHSMh8ZNUW6U-29" value="1 min / customer" style="text;html=1;strokeColor=none;fillColor=none;align=center;verticalAlign=middle;whiteSpace=wrap;rounded=0;dashed=1;" vertex="1" parent="WIyWlLk6GJQsqaUBKTNV-1">
          <mxGeometry x="-655" y="420" width="40" height="20" as="geometry" />
        </mxCell>
        <mxCell id="xaEp7-AzfHSMh8ZNUW6U-32" value="1 min / customer" style="text;html=1;strokeColor=none;fillColor=none;align=center;verticalAlign=middle;whiteSpace=wrap;rounded=0;dashed=1;" vertex="1" parent="WIyWlLk6GJQsqaUBKTNV-1">
          <mxGeometry x="-510" y="420" width="40" height="20" as="geometry" />
        </mxCell>
        <mxCell id="xaEp7-AzfHSMh8ZNUW6U-33" value="30 min / customer" style="text;html=1;strokeColor=none;fillColor=none;align=center;verticalAlign=middle;whiteSpace=wrap;rounded=0;dashed=1;" vertex="1" parent="WIyWlLk6GJQsqaUBKTNV-1">
          <mxGeometry x="-350" y="140" width="60" height="20" as="geometry" />
        </mxCell>
        <mxCell id="xaEp7-AzfHSMh8ZNUW6U-34" value="&lt;div&gt;2 opening hours / day&lt;/div&gt;&lt;div&gt;50 customers / day&lt;br&gt;&lt;/div&gt;" style="text;html=1;strokeColor=none;fillColor=none;align=center;verticalAlign=middle;whiteSpace=wrap;rounded=0;dashed=1;" vertex="1" parent="WIyWlLk6GJQsqaUBKTNV-1">
          <mxGeometry x="-1100" y="900" width="135" height="20" as="geometry" />
        </mxCell>
        <mxCell id="xaEp7-AzfHSMh8ZNUW6U-35" value="&lt;u&gt;&lt;font style=&quot;font-size: 24px&quot;&gt;Canteen Model&lt;br&gt;&lt;/font&gt;&lt;/u&gt;" style="text;html=1;strokeColor=none;fillColor=none;align=center;verticalAlign=middle;whiteSpace=wrap;rounded=0;dashed=1;" vertex="1" parent="WIyWlLk6GJQsqaUBKTNV-1">
          <mxGeometry x="-1160" y="20" width="240" height="20" as="geometry" />
        </mxCell>
        <mxCell id="xaEp7-AzfHSMh8ZNUW6U-36" value="&lt;div align=&quot;left&quot;&gt;&lt;ul&gt;&lt;li&gt;Throughput Time &lt;br&gt;&lt;/li&gt;&lt;ul&gt;&lt;li&gt;without eating: 7 min&lt;/li&gt;&lt;li&gt;with eating: 37 min&lt;/li&gt;&lt;li&gt;weighted average: 31 min&lt;br&gt;&lt;/li&gt;&lt;/ul&gt;&lt;/ul&gt;&lt;/div&gt;" style="text;html=1;strokeColor=none;fillColor=none;align=left;verticalAlign=middle;whiteSpace=wrap;rounded=0;dashed=1;" vertex="1" parent="WIyWlLk6GJQsqaUBKTNV-1">
          <mxGeometry x="-1040" y="600" width="420" height="140" as="geometry" />
        </mxCell>
        <mxCell id="xaEp7-AzfHSMh8ZNUW6U-37" value="&lt;u&gt;&lt;font style=&quot;font-size: 24px&quot;&gt;Simplified Canteen Modell&lt;br&gt;&lt;/font&gt;&lt;/u&gt;" style="text;html=1;strokeColor=none;fillColor=none;align=center;verticalAlign=middle;whiteSpace=wrap;rounded=0;dashed=1;" vertex="1" parent="WIyWlLk6GJQsqaUBKTNV-1">
          <mxGeometry x="-1140" y="850" width="340" height="20" as="geometry" />
        </mxCell>
        <mxCell id="xaEp7-AzfHSMh8ZNUW6U-40" value="Start" style="ellipse;whiteSpace=wrap;html=1;" vertex="1" parent="WIyWlLk6GJQsqaUBKTNV-1">
          <mxGeometry x="-1045" y="1000" width="60" height="50" as="geometry" />
        </mxCell>
        <mxCell id="xaEp7-AzfHSMh8ZNUW6U-41" value="End" style="ellipse;whiteSpace=wrap;html=1;" vertex="1" parent="WIyWlLk6GJQsqaUBKTNV-1">
          <mxGeometry x="-584" y="1000" width="60" height="50" as="geometry" />
        </mxCell>
        <mxCell id="xaEp7-AzfHSMh8ZNUW6U-43" value="Kitchen Staff" style="rounded=0;whiteSpace=wrap;html=1;" vertex="1" parent="WIyWlLk6GJQsqaUBKTNV-1">
          <mxGeometry x="-925" y="1000" width="100" height="50" as="geometry" />
        </mxCell>
        <mxCell id="xaEp7-AzfHSMh8ZNUW6U-44" value="Cashier Staff" style="rounded=0;whiteSpace=wrap;html=1;" vertex="1" parent="WIyWlLk6GJQsqaUBKTNV-1">
          <mxGeometry x="-755" y="1000" width="100" height="50" as="geometry" />
        </mxCell>
        <mxCell id="xaEp7-AzfHSMh8ZNUW6U-45" value="" style="endArrow=classic;html=1;exitX=1;exitY=0.5;exitDx=0;exitDy=0;" edge="1" parent="WIyWlLk6GJQsqaUBKTNV-1" source="xaEp7-AzfHSMh8ZNUW6U-40" target="xaEp7-AzfHSMh8ZNUW6U-43">
          <mxGeometry width="50" height="50" relative="1" as="geometry">
            <mxPoint x="-720" y="970" as="sourcePoint" />
            <mxPoint x="-670" y="920" as="targetPoint" />
          </mxGeometry>
        </mxCell>
        <mxCell id="xaEp7-AzfHSMh8ZNUW6U-46" value="" style="endArrow=classic;html=1;exitX=1;exitY=0.5;exitDx=0;exitDy=0;entryX=0;entryY=0.5;entryDx=0;entryDy=0;" edge="1" parent="WIyWlLk6GJQsqaUBKTNV-1" source="xaEp7-AzfHSMh8ZNUW6U-43" target="xaEp7-AzfHSMh8ZNUW6U-44">
          <mxGeometry width="50" height="50" relative="1" as="geometry">
            <mxPoint x="-720" y="970" as="sourcePoint" />
            <mxPoint x="-670" y="920" as="targetPoint" />
          </mxGeometry>
        </mxCell>
        <mxCell id="xaEp7-AzfHSMh8ZNUW6U-47" value="" style="endArrow=classic;html=1;exitX=1;exitY=0.5;exitDx=0;exitDy=0;entryX=0;entryY=0.5;entryDx=0;entryDy=0;" edge="1" parent="WIyWlLk6GJQsqaUBKTNV-1" source="xaEp7-AzfHSMh8ZNUW6U-44" target="xaEp7-AzfHSMh8ZNUW6U-41">
          <mxGeometry width="50" height="50" relative="1" as="geometry">
            <mxPoint x="-720" y="970" as="sourcePoint" />
            <mxPoint x="-670" y="920" as="targetPoint" />
          </mxGeometry>
        </mxCell>
        <mxCell id="xaEp7-AzfHSMh8ZNUW6U-48" value="2 min / customer" style="text;html=1;strokeColor=none;fillColor=none;align=center;verticalAlign=middle;whiteSpace=wrap;rounded=0;dashed=1;" vertex="1" parent="WIyWlLk6GJQsqaUBKTNV-1">
          <mxGeometry x="-895" y="1070" width="40" height="20" as="geometry" />
        </mxCell>
        <mxCell id="xaEp7-AzfHSMh8ZNUW6U-49" value="1 min / customer" style="text;html=1;strokeColor=none;fillColor=none;align=center;verticalAlign=middle;whiteSpace=wrap;rounded=0;dashed=1;" vertex="1" parent="WIyWlLk6GJQsqaUBKTNV-1">
          <mxGeometry x="-725" y="1070" width="40" height="20" as="geometry" />
        </mxCell>
        <mxCell id="xaEp7-AzfHSMh8ZNUW6U-50" value="&lt;ul&gt;&lt;li&gt;cycle time: 2 min&lt;/li&gt;&lt;li&gt;capacity utilization of kitchen staff: 0.833&lt;/li&gt;&lt;li&gt;capacity utilization of cashier staff: 0.416&lt;br&gt;&lt;/li&gt;&lt;/ul&gt;" style="text;html=1;strokeColor=none;fillColor=none;align=left;verticalAlign=middle;whiteSpace=wrap;rounded=0;dashed=1;" vertex="1" parent="WIyWlLk6GJQsqaUBKTNV-1">
          <mxGeometry x="-1025" y="1180" width="626" height="200" as="geometry" />
        </mxCell>
        <mxCell id="xaEp7-AzfHSMh8ZNUW6U-51" value="&lt;div align=&quot;left&quot;&gt;Little&#39;s Law: &lt;br&gt;&lt;/div&gt;&lt;div align=&quot;left&quot;&gt;&lt;ul&gt;&lt;li&gt;average time eating: 30 min&lt;/li&gt;&lt;li&gt;average arrival time: 50 customers / 2h = 0.41 customer / min&lt;/li&gt;&lt;li&gt;number of seats required: 30 min * 0.41 customer / min = 12.5 customers&lt;br&gt;&lt;/li&gt;&lt;/ul&gt;&lt;/div&gt;" style="text;html=1;strokeColor=none;fillColor=none;align=center;verticalAlign=middle;whiteSpace=wrap;rounded=0;dashed=1;" vertex="1" parent="WIyWlLk6GJQsqaUBKTNV-1">
          <mxGeometry x="-560" y="1220.5" width="470" height="119" as="geometry" />
        </mxCell>
      </root>
    </mxGraphModel>
  </diagram>
</mxfile>
